<svg xmlns="http://www.w3.org/2000/svg" width="16.266" height="25.661" viewBox="0 0 16.266 25.661"><path d="M14.752,19.6l-.991,1.233-.323,4.02c0,.446-1.99.807-4.437.807s-4.437-.361-4.437-.807l-.408-3.98L3.108,19.6a26.837,26.837,0,0,0,11.644,0ZM.97,6.907l.956,6.29a5.007,5.007,0,0,1,2.813-2.767,1.883,1.883,0,0,1,1.315.045,1.45,1.45,0,0,1,.71.591.328.328,0,0,1-.316.456c-.211,0-.373-.231-.478-.366a.881.881,0,0,0-1.188-.14,4.014,4.014,0,0,0-1.2,1.038,5.219,5.219,0,0,0-.844,1.413,1.3,1.3,0,0,0-.042,1,.377.377,0,0,0,.345.18,2.481,2.481,0,0,0,1.111-.506,4.325,4.325,0,0,0,.879-.8l.366-.777c.183-.341.7-.281.7,0,0,.511-.26.682-.7,1.739-.408.977-.534,1.293-.534,1.293-.049.14-.239.376-.443.376a.237.237,0,0,1-.183-.06c-.07-.07-.063-.266-.056-.316a11.1,11.1,0,0,1,.513-1.263c-.141.11-.288.221-.45.331a3.09,3.09,0,0,1-1.512.591,1.107,1.107,0,0,1-.541-.12l.534,3.99c.141.251,2.756.857,6.2.857s6.068-.611,6.2-.857l.766-4.742a5.79,5.79,0,0,1-1.378.742c-.38.115-1.223.19-1.223-.286,0-.261.64-.742,1.012-1.078.1-.085.33-.3.33-.406,0-.145-.422-.11-.823.125a3.514,3.514,0,0,0-.612.486,3.865,3.865,0,0,0-.6.777,10.239,10.239,0,0,0-.64,1.1c-.352.667-.3.591-.366.7a.592.592,0,0,1-.281.226.574.574,0,0,1-.429-.015.185.185,0,0,1-.091-.185.453.453,0,0,1,.021-.135,16.647,16.647,0,0,1,1.055-1.719c.113-.185.07-.13.056-.115a3.909,3.909,0,0,1-1.012.526c-.408.13-.914.13-1.02-.205-.007-.02-.007-.04-.014-.06-.83.461-1.709.586-1.406-.406a2.009,2.009,0,0,1-1.575.747.633.633,0,0,1-.6-.256c-.162-.276.091-.747.323-1.193a8.2,8.2,0,0,1,.5-.812.5.5,0,0,1,.534-.226.674.674,0,0,1,.113.035c.183.09.113.226.021.361a4.9,4.9,0,0,0-.654,1.043c-.063.165-.141.451.105.451a1.041,1.041,0,0,0,.485-.12,2.5,2.5,0,0,0,.78-.677,3.075,3.075,0,0,0,.394-.616,1.443,1.443,0,0,1,.127-.241A.437.437,0,0,1,9.38,12.7a.33.33,0,0,1,.225.075.254.254,0,0,1,.028.346c-.141.281-.33.531-.485.837a1.423,1.423,0,0,0-.19.586c0,.17.26.13.478.06a2.383,2.383,0,0,0,.478-.226,36.161,36.161,0,0,1,1.856-3.418.472.472,0,0,1,.429-.236.485.485,0,0,1,.225.055.228.228,0,0,1,.07.311c-.049.1-.042.065-.316.526-.366.606-.6,1.043-.928,1.6-.134.231-.541.947-.612,1.118-.042.11-.091.291.07.291a5.018,5.018,0,0,0,1.624-.852.155.155,0,0,1,.063-.03c.042-.1.084-.185.12-.276a1.723,1.723,0,0,1,.373-.566.284.284,0,0,1,.19-.08c.2,0,.3.06.3.2a1.257,1.257,0,0,1-.077.311q.148-.113.316-.226c1.055-.7,1.807-.341,1.807.01,0,.371-.626.887-.97,1.173-.113.1-.345.271-.352.321,0,.065.063.09.155.09a1.881,1.881,0,0,0,.563-.236c.352-.2.83-.5,1.167-.707L17.023,6.9c-2.145.857-13.894.862-16.052.01Zm16.151-.426c0,1.053-16.256,1.053-16.256,0,0-.441,3.642-.8,8.128-.8.633,0,1.252.005,1.849.02l.886-2.441L16.038.031c.1-.07.408-.01.7.175s.464.4.373.466L17.1.677,13.071,3.71l-.7,2.04c2.805.13,4.753.406,4.753.732Zm-4.88.231c0-.04-.063-.075-.176-.105l-.014.04c0,.065-.352.12-.78.12s-.78-.055-.78-.12a.015.015,0,0,1,.007-.015l.014-.035c-.127.03-.211.07-.211.115,0,.105.436.185.963.185s.977-.08.977-.185Z" transform="translate(-0.865 -0.002)" fill="#fff"/></svg>