<svg xmlns="http://www.w3.org/2000/svg" width="12.85" height="14.19" viewBox="0 0 12.85 14.19"><path d="M14.01,12.08,8.234,15.333V12.8l3.6-1.971L14.01,12.08Zm.4-.356V4.92L12.292,6.135v4.373ZM1.95,12.08l5.776,3.253V12.8l-3.6-1.971L1.951,12.08Zm-.4-.356V4.92L3.669,6.135v4.373L1.555,11.724ZM1.8,4.48,7.727,1.143v2.45l-3.8,2.078L3.9,5.688,1.8,4.48Zm12.356,0L8.234,1.143v2.45l3.8,2.078.029.017,2.1-1.208ZM7.727,12.223,4.176,10.28V6.428L7.727,8.469v3.754Zm.507,0,3.551-1.944V6.428L8.234,8.469ZM4.417,5.982,7.981,4.03l3.565,1.952L7.981,8.032Z" transform="translate(-1.555 -1.143)" fill="#fff"/></svg>