<svg xmlns="http://www.w3.org/2000/svg" width="16" height="14.001" viewBox="0 0 16 14.001"><path d="M13.069,5.537q-.253-.084-.506-.159c.028-.116.053-.231.078-.347.384-1.862.131-3.359-.722-3.853C11.1.706,9.756,1.2,8.4,2.378c-.134.116-.266.237-.391.359-.084-.081-.172-.162-.259-.241C6.328,1.234,4.9.7,4.05,1.2c-.819.475-1.062,1.884-.719,3.647.034.175.072.347.116.522-.2.056-.4.119-.581.184C1.2,6.131,0,7.044,0,7.988c0,.975,1.275,1.953,3.009,2.547.141.047.281.094.425.134-.047.188-.088.372-.125.563-.328,1.734-.072,3.109.747,3.581C4.9,15.3,6.319,14.8,7.7,13.591c.109-.1.219-.2.328-.3.137.134.281.262.425.387,1.337,1.15,2.659,1.616,3.475,1.144.844-.488,1.119-1.966.762-3.766q-.042-.206-.094-.422c.1-.028.2-.059.294-.091C14.694,9.944,16,8.978,16,7.987c0-.947-1.231-1.866-2.931-2.45ZM8.841,2.884C10,1.872,11.087,1.475,11.581,1.759c.528.3.731,1.528.4,3.138-.022.106-.044.209-.072.313a16,16,0,0,0-2.1-.331A15.789,15.789,0,0,0,8.475,3.219c.122-.116.241-.225.366-.334ZM5.225,9.609c.159.272.322.544.494.809a14.151,14.151,0,0,1-1.45-.234,14.6,14.6,0,0,1,.509-1.391c.144.275.291.547.447.816ZM4.278,5.85c.45-.1.928-.181,1.425-.244-.166.259-.328.525-.481.794s-.3.537-.444.813c-.2-.466-.363-.922-.5-1.363ZM5.134,8c.206-.431.431-.853.669-1.269s.494-.819.762-1.216c.469-.034.947-.053,1.434-.053s.969.019,1.434.053q.4.591.759,1.209t.678,1.263q-.314.647-.675,1.275c-.238.416-.491.819-.756,1.219-.466.034-.95.05-1.441.05s-.966-.016-1.425-.044q-.408-.6-.769-1.219C5.566,8.856,5.344,8.434,5.134,8Zm5.644,1.6c.159-.275.309-.553.456-.834a14.507,14.507,0,0,1,.528,1.384,13.726,13.726,0,0,1-1.469.25c.169-.262.328-.531.484-.8Zm.45-2.391c-.147-.275-.3-.55-.453-.819s-.312-.528-.478-.787a14.381,14.381,0,0,1,1.434.25A13.83,13.83,0,0,1,11.228,7.213ZM8.006,3.7a13.723,13.723,0,0,1,.925,1.119c-.619-.028-1.241-.028-1.859,0C7.378,4.413,7.694,4.038,8.006,3.7ZM4.381,1.781C4.906,1.475,6.072,1.913,7.3,3c.078.069.156.144.238.219A15.877,15.877,0,0,0,6.2,4.878,16.473,16.473,0,0,0,4.1,5.2c-.041-.159-.075-.322-.109-.484-.294-1.513-.1-2.653.394-2.937Zm-.766,8.238c-.131-.038-.259-.078-.388-.122a6.374,6.374,0,0,1-1.969-.975,1.4,1.4,0,0,1-.587-.934c0-.572.988-1.3,2.413-1.8.178-.062.359-.119.541-.172A16.617,16.617,0,0,0,4.391,8,17.082,17.082,0,0,0,3.616,10.019Zm3.644,3.063a5.72,5.72,0,0,1-1.762,1.1,1.383,1.383,0,0,1-1.1.041c-.5-.288-.7-1.391-.422-2.875.034-.175.072-.35.116-.522a15.633,15.633,0,0,0,2.122.306A16.491,16.491,0,0,0,7.559,12.8c-.1.1-.2.191-.3.278Zm.766-.759c-.319-.344-.637-.725-.947-1.134.3.012.609.019.922.019s.638-.006.95-.022A13.477,13.477,0,0,1,8.025,12.322Zm4.084.938a1.389,1.389,0,0,1-.516.978c-.5.288-1.556-.087-2.7-1.069-.131-.113-.262-.234-.4-.359a15.459,15.459,0,0,0,1.319-1.675,15.4,15.4,0,0,0,2.131-.328c.031.128.059.256.084.381a5.7,5.7,0,0,1,.078,2.072ZM12.678,9.9c-.087.028-.175.056-.266.081a15.875,15.875,0,0,0-.8-1.994,15.8,15.8,0,0,0,.766-1.966c.163.047.319.1.469.147,1.456.5,2.478,1.244,2.478,1.813C15.328,8.594,14.238,9.384,12.678,9.9ZM8,9.431A1.431,1.431,0,1,0,6.569,8,1.431,1.431,0,0,0,8,9.431Z" transform="translate(0 -1)" fill="#fff"/></svg>