<svg xmlns="http://www.w3.org/2000/svg" width="14" height="14" viewBox="0 0 14 14">
  <path id="Icon_awesome-bootstrap" data-name="Icon awesome-bootstrap" d="M9.134,9.748a1.244,1.244,0,0,1-1.372,1.295H5.234V8.49H7.762C9.092,8.49,9.134,9.487,9.134,9.748ZM7.567,7.462a1.123,1.123,0,0,0,1.2-1.135c0-.485-.11-1.121-1.2-1.121H5.234V7.462ZM14,3.333v9.333A2.34,2.34,0,0,1,11.667,15H2.333A2.34,2.34,0,0,1,0,12.667V3.333A2.34,2.34,0,0,1,2.333,1h9.333A2.34,2.34,0,0,1,14,3.333Zm-3.436,6.6a1.957,1.957,0,0,0-1.533-2.1V7.806A1.79,1.79,0,0,0,10.2,6.067c0-.219.063-2.024-2.425-2.024H3.8v8.167c4.007,0,4.371.052,5.113-.178A2.1,2.1,0,0,0,10.564,9.933Z" transform="translate(0 -1)" fill="#fff"/>
</svg>
