<svg xmlns="http://www.w3.org/2000/svg" width="18" height="16" viewBox="0 0 18 16"><path d="M5.443,8.012l3.419-2a.274.274,0,0,1,.276,0l3.419,2a.281.281,0,0,1,.138.243v3.994a.281.281,0,0,1-.138.242l-3.419,2a.274.274,0,0,1-.276,0l-3.419-2a.281.281,0,0,1-.138-.243V8.255a.281.281,0,0,1,.138-.243m12.446,1.82L13.8,2.641a.861.861,0,0,0-.72-.452H4.917a.861.861,0,0,0-.72.452L.112,9.816a.864.864,0,0,0,0,.848L4.2,17.8a.8.8,0,0,0,.719.392h8.17a.8.8,0,0,0,.719-.389l4.084-7.144a.82.82,0,0,0,0-.824M14.508,13.29a.3.3,0,0,1-.153.257l-5.2,3.037a.293.293,0,0,1-.294,0L3.649,13.546A.3.3,0,0,1,3.5,13.29V7.213a.3.3,0,0,1,.153-.257l5.2-3.037a.291.291,0,0,1,.294,0l5.207,3.038a.3.3,0,0,1,.154.257Z" transform="translate(-0.001 -2.189)" fill="#fff"/></svg>