<svg xmlns="http://www.w3.org/2000/svg" width="16" height="16" viewBox="0 0 16 16"><path d="M8.011.01a7.957,7.957,0,0,0-8,8,7.958,7.958,0,0,0,8,8,7.958,7.958,0,0,0,8-8A7.957,7.957,0,0,0,8.011.01ZM1.749,8.08l6.192,6.192A6.205,6.205,0,0,1,1.749,8.08ZM9.4,14.132,1.889,6.619a6.288,6.288,0,0,1,11.2-2.3l-.9.764A5.107,5.107,0,0,0,7.941,2.863a5.039,5.039,0,0,0-4.8,3.408l6.54,6.54a4.955,4.955,0,0,0,3.2-3.618H10.167V8.011h4.1A6.271,6.271,0,0,1,9.4,14.132Z" transform="translate(-0.01 -0.01)" fill="#fff"/></svg>