<svg xmlns="http://www.w3.org/2000/svg" width="11.859" height="16.009" viewBox="0 0 11.859 16.009"><path d="M1.916,5.916a1,1,0,0,0,.163.6A1.547,1.547,0,0,1,2.2,5.994a1.666,1.666,0,0,0,.4,1.066,1.358,1.358,0,0,0,1.716.191,2.341,2.341,0,0,1,.094.266,1.578,1.578,0,0,1-.084.791,1.714,1.714,0,0,0,.434-1.016.651.651,0,0,0,.659-.609.9.9,0,0,1-1.109-.275,2.712,2.712,0,0,0-2.6-.994,3.56,3.56,0,0,1,.422.128h0a.459.459,0,0,0-.219.375ZM2.8,5.859A4.47,4.47,0,0,1,4.2,7.016a1.056,1.056,0,0,1-1.187-.053A1.1,1.1,0,0,1,2.8,5.859ZM7.241,7.291a1.7,1.7,0,0,0,.434,1.016,1.578,1.578,0,0,1-.084-.791,2.581,2.581,0,0,1,.094-.266A1.349,1.349,0,0,0,9.4,7.059a1.684,1.684,0,0,0,.4-1.066,1.474,1.474,0,0,1,.125.519.972.972,0,0,0,.163-.6.449.449,0,0,0-.219-.369h0a2.681,2.681,0,0,1,.422-.128,2.709,2.709,0,0,0-2.6.994.9.9,0,0,1-1.109.275.653.653,0,0,0,.662.6ZM9.2,5.859a1.089,1.089,0,0,1-.219,1.106,1.044,1.044,0,0,1-1.184.05A4.429,4.429,0,0,1,9.2,5.859ZM5,13.078H4.081a.4.4,0,0,0-.3.091.225.225,0,0,0-.028.253A1.691,1.691,0,0,0,4.184,14a.575.575,0,0,0,.369.134.464.464,0,0,0,.344-.144,2.357,2.357,0,0,0,.406-.619.2.2,0,0,0-.028-.212A.376.376,0,0,0,5,13.078Zm5.913-3.163a2.261,2.261,0,0,1-.769,1.366,18.172,18.172,0,0,1-.116-1.95,1.052,1.052,0,0,1,.381-.816c.078-.047.169-.094.259-.144.563-.3,1.262-.675,1.262-1.366a1,1,0,0,0-.481-.869c-.025-.019-.047-.034-.069-.053a.451.451,0,0,1-.134-.137,2.451,2.451,0,0,1-.053-1.175,1.621,1.621,0,0,0,.369-1.225.835.835,0,0,0-.441-.531,1.472,1.472,0,0,0-.609-.141,1.253,1.253,0,0,0-.028-.184.851.851,0,0,1-.028-.253.948.948,0,0,1,.069-.353,1.575,1.575,0,0,1,.906-.55l.384-.075-.253-.3A2.128,2.128,0,0,0,10.116.616a2.463,2.463,0,0,0-.753.122A3.5,3.5,0,0,0,7.819,1.966q-.145-.047-.3-.084A2.012,2.012,0,0,1,7.8.678s-.425-.094-1.053.475A1.54,1.54,0,0,1,6.691-.009C5.769.316,5.537.813,5.469,1.263,5.231,1.094,5.259.541,5.244.4a1.653,1.653,0,0,0-.881,1.509c-.062.016-.122.034-.184.053A3.484,3.484,0,0,0,2.634.734,2.8,2.8,0,0,0,1.888.625a2.137,2.137,0,0,0-1.447.547l-.253.294.384.075a1.575,1.575,0,0,1,.906.55.934.934,0,0,1,.069.353.968.968,0,0,1-.028.253,1.192,1.192,0,0,0-.028.184,1.46,1.46,0,0,0-.609.141.835.835,0,0,0-.441.531A1.619,1.619,0,0,0,.809,4.778,2.451,2.451,0,0,1,.756,5.953a.451.451,0,0,1-.134.137c-.022.016-.044.034-.069.053a1,1,0,0,0-.481.869c0,.691.7,1.066,1.262,1.366.094.05.181.1.259.144a1.052,1.052,0,0,1,.381.816,18.172,18.172,0,0,1-.116,1.95,2.269,2.269,0,0,1-.769-1.369,2.274,2.274,0,0,0-.644,2.212,2.114,2.114,0,0,0,1.469,1.709,2.605,2.605,0,0,0,2.1,1.55A3,3,0,0,0,6.006,16h.006A3.014,3.014,0,0,0,8,15.391a2.605,2.605,0,0,0,2.1-1.55,2.123,2.123,0,0,0,1.469-1.709,2.292,2.292,0,0,0-.659-2.216ZM9.553,1.178a1.811,1.811,0,0,1,.553-.084,2.034,2.034,0,0,1,.772.156,2.455,2.455,0,0,0-.3.166,1.755,1.755,0,0,0-.288-.025,1.548,1.548,0,0,0-.9.278,1.923,1.923,0,0,0-.647.7,2.441,2.441,0,0,0-.222-.116c-.05-.025-.1-.047-.147-.069A2.549,2.549,0,0,1,9.553,1.178Zm.656.569a1.16,1.16,0,0,0-.072.1A1.2,1.2,0,0,0,10,2.4a1.024,1.024,0,0,1-.137.531c-.131.025-.253.053-.359.084a2.118,2.118,0,0,0-.328-.35,1.485,1.485,0,0,1,.422-.7,1.057,1.057,0,0,1,.613-.219ZM1.425,1.416a1.835,1.835,0,0,0-.3-.166,2.034,2.034,0,0,1,.772-.156,1.826,1.826,0,0,1,.553.084,2.6,2.6,0,0,1,1.178,1c-.05.022-.1.044-.15.069-.078.037-.153.078-.222.116a1.889,1.889,0,0,0-.647-.7,1.558,1.558,0,0,0-.9-.278,2.13,2.13,0,0,0-.281.028Zm1.4,1.253a1.887,1.887,0,0,0-.328.35c-.106-.028-.228-.059-.359-.084A1,1,0,0,1,2,2.406a1.2,1.2,0,0,0-.138-.556,1.16,1.16,0,0,0-.072-.1,1.02,1.02,0,0,1,.609.219,1.464,1.464,0,0,1,.422.7ZM1.816,8.122c-.084-.05-.175-.1-.263-.144-.466-.25-.944-.509-.944-.953a.6.6,0,0,1,.278-.569L.9,6.444c.022-.019.044-.037.069-.056a2.461,2.461,0,0,1-.084.466,2.9,2.9,0,0,0,.491-1.384,3.46,3.46,0,0,0-.159-1.344,4.271,4.271,0,0,1-.009.45.363.363,0,0,0-.041-.069,1.222,1.222,0,0,1-.294-.831.367.367,0,0,1,.209-.244,1.057,1.057,0,0,1,.472-.091,3.6,3.6,0,0,1,1.028.188,7.783,7.783,0,0,1,2,1.178.054.054,0,0,0,.012.009l.175.122-.109-.181A4.091,4.091,0,0,0,3,3.2a1.774,1.774,0,0,1,.675-.472A5.241,5.241,0,0,1,6,2.237a5.231,5.231,0,0,1,2.322.494A1.739,1.739,0,0,1,9,3.2,4.1,4.1,0,0,0,7.337,4.656l-.109.181L7.4,4.716a.054.054,0,0,0,.012-.009,7.694,7.694,0,0,1,2-1.178,3.715,3.715,0,0,1,1.028-.187,1.057,1.057,0,0,1,.472.091.392.392,0,0,1,.209.244,1.192,1.192,0,0,1-.294.831.285.285,0,0,0-.041.069,4.271,4.271,0,0,1-.009-.45,3.467,3.467,0,0,0-.159,1.344,2.9,2.9,0,0,0,.491,1.384,2.461,2.461,0,0,1-.084-.466l.069.056.016.012a.608.608,0,0,1,.278.569c0,.444-.481.7-.944.953-.091.047-.178.1-.262.144a1.309,1.309,0,0,0-.6,1.069A20.579,20.579,0,0,0,9.7,11.563a3.834,3.834,0,0,1-1.241.212,3.741,3.741,0,0,1-.172-.409c-.022-.062-.613-1.6-.825-1.944a13.673,13.673,0,0,0,.734,2.8,2.584,2.584,0,0,0-.366-.022H4.172a3.108,3.108,0,0,0-.366.022,13.469,13.469,0,0,0,.734-2.8c-.213.35-.8,1.884-.825,1.944a3.741,3.741,0,0,1-.172.409A3.848,3.848,0,0,1,2.3,11.563a20.551,20.551,0,0,0,.106-2.372,1.3,1.3,0,0,0-.594-1.069Zm-.728,4.522A2.273,2.273,0,0,1,.972,10.8,2.358,2.358,0,0,0,3.3,12.216c-.084.131-.162.238-.219.313l-.044.044a.936.936,0,0,0-.128.994,2.114,2.114,0,0,1-1.819-.922ZM2.516,14a5.672,5.672,0,0,0,.581.075,4.436,4.436,0,0,0,.384.722A2.177,2.177,0,0,1,2.516,14ZM6,15.569a2.672,2.672,0,0,1-2.653-2.022.709.709,0,0,1,.028-.722.981.981,0,0,1,.769-.225H7.856c.472,0,.681.122.769.225a.723.723,0,0,1,.028.722A2.675,2.675,0,0,1,6,15.569ZM8.519,14.8a4.436,4.436,0,0,0,.384-.722A5.672,5.672,0,0,0,9.484,14,2.177,2.177,0,0,1,8.519,14.8Zm2.394-2.156a2.148,2.148,0,0,1-1.816.928.935.935,0,0,0-.128-.994.6.6,0,0,0-.044-.047c-.056-.075-.134-.181-.219-.312A2.363,2.363,0,0,0,11.031,10.8a2.257,2.257,0,0,1-.119,1.844ZM6,5.866H6c.4,0,.85-.556.85-.556A1.669,1.669,0,0,1,6,5.569a1.669,1.669,0,0,1-.853-.259s.453.55.85.556Zm1.928,7.209H7.006a.375.375,0,0,0-.278.084.192.192,0,0,0-.028.209,2.229,2.229,0,0,0,.406.6.461.461,0,0,0,.344.141.583.583,0,0,0,.369-.131,1.623,1.623,0,0,0,.428-.566.215.215,0,0,0-.028-.247.41.41,0,0,0-.294-.094Z" transform="translate(-0.072 0.009)" fill="#fff"/></svg>