<svg xmlns="http://www.w3.org/2000/svg" width="20" height="15.001" viewBox="0 0 20 15.001"><path d="M9.432,11.841C9.423,11.86,9.414,11.875,9.432,11.841Zm7.785-2.719a4.1,4.1,0,0,0-1.812.422A3.849,3.849,0,0,1,15,8.6a2.511,2.511,0,0,1-.034-.791,6.658,6.658,0,0,1,.238-.85c0-.034-.044-.206-.447-.209s-.75.078-.79.184a3.838,3.838,0,0,0-.166.6,14.48,14.48,0,0,1-1.222,2.353A2.426,2.426,0,0,1,12.3,9.2a2.511,2.511,0,0,1-.034-.791,6.658,6.658,0,0,1,.238-.85c0-.034-.044-.206-.447-.209s-.75.078-.791.184-.084.356-.166.6-1.059,2.416-1.315,2.981c-.131.288-.244.519-.325.675-.012.025-.022.041-.028.053.009-.016.016-.031.016-.025-.069.134-.109.209-.109.209v0c-.053.1-.113.191-.141.191a1.3,1.3,0,0,1,.009-.622c.147-.756.494-1.931.491-1.972,0-.022.066-.225-.228-.334a.368.368,0,0,0-.413.069c-.025,0-.044.063-.044.063S9.329,8.1,8.407,8.1A2.75,2.75,0,0,0,6.639,9.3c-.247.134-.781.425-1.344.734l-.647.356c-.016-.016-.028-.031-.044-.047C3.486,9.151,1.421,8.307,1.509,6.7c.031-.584.234-2.119,3.971-3.981,3.063-1.525,5.511-1.106,5.932-.175.606,1.328-1.309,3.8-4.489,4.156a2.394,2.394,0,0,1-2.009-.509C4.748,6.01,4.723,6,4.661,6.035c-.1.056-.037.219,0,.316a1.883,1.883,0,0,0,1.15.9,6.089,6.089,0,0,0,3.724-.369c1.931-.744,3.433-2.816,2.993-4.55C12.079.572,9.156-.006,6.393.976a13.9,13.9,0,0,0-4.708,2.7C.163,5.1-.08,6.341.02,6.86.376,8.7,2.913,9.9,3.928,10.788l-.141.078C3.278,11.119,1.344,12.132.86,13.2c-.547,1.212.091,2.081.509,2.2a3.12,3.12,0,0,0,3.362-1.363,3.383,3.383,0,0,0,.3-3.109c0-.009-.009-.016-.012-.025.131-.078.266-.156.4-.234.259-.153.512-.294.734-.416a4.854,4.854,0,0,0-.262,1.331,2.766,2.766,0,0,0,.6,1.928.656.656,0,0,0,.481.156c.431,0,.625-.356.84-.781.266-.519.5-1.122.5-1.122S8.014,13.4,8.817,13.4c.293,0,.587-.378.719-.572v0s.006-.012.022-.038c.031-.047.047-.075.047-.075v-.009c.119-.2.378-.669.768-1.437.506-.994.99-2.234.99-2.234a6.289,6.289,0,0,0,.194.806,7.549,7.549,0,0,0,.419.937c-.119.163-.191.256-.191.256a.01.01,0,0,0,0,.006c-.094.125-.2.259-.309.391a11.03,11.03,0,0,0-.937,1.175.319.319,0,0,0,.087.428.76.76,0,0,0,.49.078,2.167,2.167,0,0,0,.734-.169,2.569,2.569,0,0,0,.631-.331,1.411,1.411,0,0,0,.606-1.244,2.588,2.588,0,0,0-.228-.881c.034-.05.072-.1.106-.156a16.613,16.613,0,0,0,1.1-1.894,6.289,6.289,0,0,0,.194.806,5.512,5.512,0,0,0,.356.8,3.435,3.435,0,0,0-1.065,1.378c-.231.666-.05.966.291,1.034a1.049,1.049,0,0,0,.534-.109A2.483,2.483,0,0,0,15.05,12a1.51,1.51,0,0,0,.743-1.238,2.325,2.325,0,0,0-.169-.731,3.814,3.814,0,0,1,1.94-.225c1.74.2,2.081,1.291,2.015,1.744a1.155,1.155,0,0,1-.553.781c-.122.075-.159.1-.15.159.016.081.072.078.175.059A1.358,1.358,0,0,0,20,11.344c.05-1.062-.972-2.231-2.781-2.222ZM3.806,13.644c-.575.628-1.381.866-1.727.666-.372-.216-.225-1.141.484-1.81a9.259,9.259,0,0,1,1.356-1.012c.084-.05.206-.125.356-.216.025-.016.037-.022.037-.022.028-.019.059-.034.091-.053a2.494,2.494,0,0,1-.6,2.447ZM8,10.788c-.2.491-.622,1.741-.878,1.675-.219-.056-.353-1.009-.044-1.947a4.31,4.31,0,0,1,.684-1.253c.315-.353.662-.466.743-.325A6.33,6.33,0,0,1,8,10.788Zm3.469,1.656c-.084.044-.163.072-.2.05s.034-.075.034-.075.434-.466.606-.678c.1-.125.216-.272.34-.434,0,.016,0,.031,0,.05a1.449,1.449,0,0,1-.785,1.087Zm2.674-.609c-.062-.044-.053-.191.156-.647a2.429,2.429,0,0,1,.594-.766,1.131,1.131,0,0,1,.059.337,1.1,1.1,0,0,1-.809,1.075Z" transform="translate(0 -0.5)" fill="#fff"/></svg>