<svg xmlns="http://www.w3.org/2000/svg" width="14" height="14" viewBox="0 0 14 14"><path d="M12.5,1H1.5A1.5,1.5,0,0,0,0,2.5v11A1.5,1.5,0,0,0,1.5,15h11A1.5,1.5,0,0,0,14,13.5V2.5A1.5,1.5,0,0,0,12.5,1ZM7.619,11.919A1.789,1.789,0,0,1,5.653,13.9a2.044,2.044,0,0,1-1.975-1.2l1.072-.647c.206.366.394.675.847.675.431,0,.706-.169.706-.828V7.428H7.619v4.491ZM10.731,13.9a2.525,2.525,0,0,1-2.4-1.344l1.072-.619a1.436,1.436,0,0,0,1.3.8c.544,0,.894-.272.894-.65,0-.45-.356-.609-.959-.875l-.328-.141c-.95-.4-1.578-.913-1.578-1.984a1.757,1.757,0,0,1,1.925-1.738,1.938,1.938,0,0,1,1.869,1.053L11.5,9.063a.9.9,0,0,0-.847-.562.571.571,0,0,0-.628.563c0,.394.244.553.809.8l.328.141c1.119.478,1.747.969,1.747,2.069,0,1.181-.931,1.831-2.178,1.831Z" transform="translate(0 -1)" fill="#fff"/></svg>