<svg xmlns="http://www.w3.org/2000/svg" width="16" height="16" viewBox="0 0 16 16"><path d="M11.877,15c-.059.031-.056.044,0,.014a.152.152,0,0,0,.047-.031c0-.011,0-.009-.05.017ZM12,14.942c-.028.022-.028.023.006.006a.1.1,0,0,0,.035-.023C12.036,14.912,12.028,14.915,12,14.942Zm.078-.047c-.028.022-.028.023.006.006a.1.1,0,0,0,.035-.023C12.114,14.864,12.106,14.868,12.073,14.894Zm.078-.047c-.028.022-.028.023.006.006a.1.1,0,0,0,.035-.023C12.192,14.818,12.184,14.821,12.151,14.848Zm.108-.07c-.055.035-.072.058-.023.031s.091-.063.081-.064a.311.311,0,0,0-.058.033ZM7.477.006,7.234.028A8.017,8.017,0,0,0,1.486,3.344a7.918,7.918,0,0,0-1.412,3.5A6.134,6.134,0,0,0,0,8,6.138,6.138,0,0,0,.074,9.17a8.033,8.033,0,0,0,5.472,6.464,8.453,8.453,0,0,0,1.689.35,14.692,14.692,0,0,0,1.533,0,8.076,8.076,0,0,0,2.882-.843c.137-.071.164-.089.145-.1q-.657-.869-1.3-1.747L9.213,11.561,7.61,9.189Q6.811,8,6,6.818c-.006,0-.013,1.053-.015,2.339a18.113,18.113,0,0,1-.035,2.4.283.283,0,0,1-.137.142c-.05.025-.094.03-.33.03H5.208l-.072-.045a.3.3,0,0,1-.1-.114L5,11.5,5,8.362l0-3.137.049-.061a.425.425,0,0,1,.116-.1c.064-.031.089-.035.36-.035.319,0,.372.013.455.1q.973,1.448,1.93,2.908c1.039,1.575,2.458,3.725,3.156,4.781l1.267,1.919L12.4,14.7a8.227,8.227,0,0,0,1.643-1.442,7.961,7.961,0,0,0,1.883-4.09A6.134,6.134,0,0,0,16,8.006a6.138,6.138,0,0,0-.072-1.165A8.033,8.033,0,0,0,10.457.377,8.368,8.368,0,0,0,8.792.028C8.642.013,7.608,0,7.478.008Zm3.275,4.839a.314.314,0,0,1,.158.185c.013.041.015.91.013,2.87l0,2.812-.5-.76-.5-.76V7.147c0-1.321.006-2.064.015-2.1a.323.323,0,0,1,.155-.2c.064-.033.087-.036.333-.036S10.7,4.817,10.752,4.845Z" transform="translate(-0.001 -0.004)" fill="#fff"/></svg>